<mxfile host="Electron" agent="Mozilla/5.0 (Macintosh; Intel Mac OS X 10_15_7) AppleWebKit/537.36 (KHTML, like Gecko) draw.io/24.7.5 Chrome/126.0.6478.183 Electron/31.3.0 Safari/537.36" version="24.7.5">
  <diagram name="Page-1" id="Jtbjyw8I65hGM7k91j6c">
    <mxGraphModel dx="1975" dy="1913" grid="1" gridSize="10" guides="1" tooltips="1" connect="1" arrows="1" fold="1" page="1" pageScale="1" pageWidth="850" pageHeight="1100" math="0" shadow="0">
      <root>
        <mxCell id="0" />
        <mxCell id="1" parent="0" />
        <object c4Name="Business Application" c4Type="Application" c4Description="Manages core business processes including IT service instance links and correlation IDs." label="&lt;font style=&quot;font-size: 16px&quot;&gt;&lt;b&gt;Business Application&lt;/b&gt;&lt;/font&gt;&lt;div&gt;[Application]&lt;/div&gt;&lt;br&gt;&lt;div&gt;&lt;font style=&quot;font-size: 11px&quot;&gt;Manages core business processes including IT service instance links and correlation IDs.&lt;/font&gt;&lt;/div&gt;" id="BusinessApplication">
          <mxCell style="rounded=1;whiteSpace=wrap;html=1;fontSize=11;labelBackgroundColor=none;fillColor=#1061B0;fontColor=#ffffff;align=center;arcSize=10;strokeColor=#0D5091;" vertex="1" parent="1">
            <mxGeometry x="441" y="10" width="240" height="120" as="geometry" />
          </mxCell>
        </object>
        <object c4Name="IT Service Instance" c4Type="Service" c4Description="Hosts CIs and environments, linked to business applications." label="&lt;font style=&quot;font-size: 16px&quot;&gt;&lt;b&gt;IT Service Instance&lt;/b&gt;&lt;/font&gt;&lt;div&gt;[Service]&lt;/div&gt;&lt;br&gt;&lt;div&gt;&lt;font style=&quot;font-size: 11px&quot;&gt;Hosts CIs and environments, linked to business applications.&lt;/font&gt;&lt;/div&gt;" id="ITServiceInstance">
          <mxCell style="rounded=1;whiteSpace=wrap;html=1;fontSize=11;labelBackgroundColor=none;fillColor=#23A2D9;fontColor=#ffffff;align=center;arcSize=10;strokeColor=#0E7DAD;" vertex="1" parent="1">
            <mxGeometry x="50" y="210" width="240" height="120" as="geometry" />
          </mxCell>
        </object>
        <mxCell id="1F7ln1BnH1d8VKDmkU4t-13" style="edgeStyle=orthogonalEdgeStyle;rounded=0;orthogonalLoop=1;jettySize=auto;html=1;entryX=1;entryY=0.5;entryDx=0;entryDy=0;" edge="1" parent="1" target="ITServiceInstance">
          <mxGeometry relative="1" as="geometry">
            <mxPoint x="440" y="270" as="sourcePoint" />
          </mxGeometry>
        </mxCell>
        <mxCell id="1F7ln1BnH1d8VKDmkU4t-23" value="associated&amp;nbsp;&lt;div&gt;with&lt;/div&gt;" style="edgeLabel;html=1;align=center;verticalAlign=middle;resizable=0;points=[];" vertex="1" connectable="0" parent="1F7ln1BnH1d8VKDmkU4t-13">
          <mxGeometry x="-0.0316" relative="1" as="geometry">
            <mxPoint as="offset" />
          </mxGeometry>
        </mxCell>
        <mxCell id="1F7ln1BnH1d8VKDmkU4t-8" style="edgeStyle=orthogonalEdgeStyle;rounded=0;orthogonalLoop=1;jettySize=auto;html=1;entryX=1;entryY=0.5;entryDx=0;entryDy=0;" edge="1" parent="1" source="ADFunctionalGroup" target="BusinessApplication">
          <mxGeometry relative="1" as="geometry" />
        </mxCell>
        <mxCell id="1F7ln1BnH1d8VKDmkU4t-9" value="Linked By&amp;nbsp;&lt;br&gt;CorrelationID" style="edgeLabel;html=1;align=center;verticalAlign=middle;resizable=0;points=[];" vertex="1" connectable="0" parent="1F7ln1BnH1d8VKDmkU4t-8">
          <mxGeometry x="0.1134" y="3" relative="1" as="geometry">
            <mxPoint as="offset" />
          </mxGeometry>
        </mxCell>
        <mxCell id="1F7ln1BnH1d8VKDmkU4t-35" style="edgeStyle=orthogonalEdgeStyle;rounded=0;orthogonalLoop=1;jettySize=auto;html=1;entryX=1;entryY=0.5;entryDx=0;entryDy=0;exitX=0.5;exitY=1;exitDx=0;exitDy=0;" edge="1" parent="1" source="ADFunctionalGroup" target="1F7ln1BnH1d8VKDmkU4t-19">
          <mxGeometry relative="1" as="geometry" />
        </mxCell>
        <mxCell id="1F7ln1BnH1d8VKDmkU4t-36" value="controls access to" style="edgeLabel;html=1;align=center;verticalAlign=middle;resizable=0;points=[];" vertex="1" connectable="0" parent="1F7ln1BnH1d8VKDmkU4t-35">
          <mxGeometry x="-0.6199" y="-1" relative="1" as="geometry">
            <mxPoint as="offset" />
          </mxGeometry>
        </mxCell>
        <object c4Name="AD Functional Group" c4Type="Directory Service" c4Description="Manages user roles, permissions, and environment access controls." label="&lt;font style=&quot;font-size: 16px&quot;&gt;&lt;b&gt;AD Functional Group&lt;/b&gt;&lt;/font&gt;&lt;div&gt;[Directory Service]&lt;/div&gt;&lt;br&gt;&lt;div&gt;&lt;font style=&quot;font-size: 11px&quot;&gt;Manages user roles, permissions, and environment access controls.&lt;/font&gt;&lt;/div&gt;" id="ADFunctionalGroup">
          <mxCell style="rounded=1;whiteSpace=wrap;html=1;fontSize=11;labelBackgroundColor=none;fillColor=#0073B7;fontColor=#ffffff;align=center;arcSize=10;strokeColor=#005792;" vertex="1" parent="1">
            <mxGeometry x="816" y="10" width="240" height="120" as="geometry" />
          </mxCell>
        </object>
        <mxCell id="1F7ln1BnH1d8VKDmkU4t-29" value="" style="edgeStyle=orthogonalEdgeStyle;rounded=0;orthogonalLoop=1;jettySize=auto;html=1;" edge="1" parent="1" source="NolioAgent" target="1F7ln1BnH1d8VKDmkU4t-20">
          <mxGeometry relative="1" as="geometry" />
        </mxCell>
        <mxCell id="1F7ln1BnH1d8VKDmkU4t-30" value="installed&amp;nbsp;&lt;div&gt;on&lt;/div&gt;" style="edgeLabel;html=1;align=center;verticalAlign=middle;resizable=0;points=[];" vertex="1" connectable="0" parent="1F7ln1BnH1d8VKDmkU4t-29">
          <mxGeometry x="0.0614" y="-1" relative="1" as="geometry">
            <mxPoint as="offset" />
          </mxGeometry>
        </mxCell>
        <mxCell id="1F7ln1BnH1d8VKDmkU4t-38" value="" style="edgeStyle=orthogonalEdgeStyle;rounded=0;orthogonalLoop=1;jettySize=auto;html=1;" edge="1" parent="1" source="NolioAgent" target="1F7ln1BnH1d8VKDmkU4t-19">
          <mxGeometry relative="1" as="geometry" />
        </mxCell>
        <mxCell id="1F7ln1BnH1d8VKDmkU4t-39" value="assigned to" style="edgeLabel;html=1;align=center;verticalAlign=middle;resizable=0;points=[];" vertex="1" connectable="0" parent="1F7ln1BnH1d8VKDmkU4t-38">
          <mxGeometry x="-0.1287" y="1" relative="1" as="geometry">
            <mxPoint as="offset" />
          </mxGeometry>
        </mxCell>
        <object c4Name="Nolio Agent" c4Type="Agent" c4Description="Executes deployment actions, managed by CIs and environments." label="&lt;font style=&quot;font-size: 16px&quot;&gt;&lt;b&gt;Nolio Agent&lt;/b&gt;&lt;/font&gt;&lt;div&gt;[Agent]&lt;/div&gt;&lt;br&gt;&lt;div&gt;&lt;font style=&quot;font-size: 11px&quot;&gt;Executes deployment actions, managed by CIs and environments.&lt;/font&gt;&lt;/div&gt;" id="NolioAgent">
          <mxCell style="rounded=1;whiteSpace=wrap;html=1;fontSize=11;labelBackgroundColor=none;fillColor=#6CA0DC;fontColor=#ffffff;align=center;arcSize=10;strokeColor=#3082CE;" vertex="1" parent="1">
            <mxGeometry x="441" y="431" width="240" height="120" as="geometry" />
          </mxCell>
        </object>
        <mxCell id="1F7ln1BnH1d8VKDmkU4t-32" value="" style="edgeStyle=orthogonalEdgeStyle;rounded=0;orthogonalLoop=1;jettySize=auto;html=1;" edge="1" parent="1" target="ADFunctionalGroup">
          <mxGeometry relative="1" as="geometry">
            <mxPoint x="936" y="-50" as="sourcePoint" />
          </mxGeometry>
        </mxCell>
        <mxCell id="1F7ln1BnH1d8VKDmkU4t-37" value="belongs to" style="edgeLabel;html=1;align=center;verticalAlign=middle;resizable=0;points=[];" vertex="1" connectable="0" parent="1F7ln1BnH1d8VKDmkU4t-32">
          <mxGeometry x="-0.1009" relative="1" as="geometry">
            <mxPoint as="offset" />
          </mxGeometry>
        </mxCell>
        <mxCell id="1F7ln1BnH1d8VKDmkU4t-15" style="edgeStyle=orthogonalEdgeStyle;rounded=0;orthogonalLoop=1;jettySize=auto;html=1;entryX=0.5;entryY=1;entryDx=0;entryDy=0;" edge="1" parent="1" target="ITServiceInstance">
          <mxGeometry relative="1" as="geometry">
            <mxPoint x="170" y="430" as="sourcePoint" />
          </mxGeometry>
        </mxCell>
        <mxCell id="1F7ln1BnH1d8VKDmkU4t-28" value="contains" style="edgeLabel;html=1;align=center;verticalAlign=middle;resizable=0;points=[];" vertex="1" connectable="0" parent="1F7ln1BnH1d8VKDmkU4t-15">
          <mxGeometry x="-0.1754" y="-1" relative="1" as="geometry">
            <mxPoint as="offset" />
          </mxGeometry>
        </mxCell>
        <object c4Name="Environment" c4Type="Deployment Environment" c4Description="Defines the deployment conditions and restrictions, linked to IT services and agents." label="&lt;font style=&quot;font-size: 16px&quot;&gt;&lt;b&gt;Environment&lt;/b&gt;&lt;/font&gt;&lt;div&gt;[Deployment Environment]&lt;/div&gt;&lt;br&gt;&lt;div&gt;&lt;font style=&quot;font-size: 11px&quot;&gt;Defines the deployment conditions and restrictions, linked to IT services and agents.&lt;/font&gt;&lt;/div&gt;" id="1F7ln1BnH1d8VKDmkU4t-19">
          <mxCell style="rounded=1;whiteSpace=wrap;html=1;fontSize=11;labelBackgroundColor=none;fillColor=#4FC3F7;fontColor=#ffffff;align=center;arcSize=10;strokeColor=#29B6F6;" vertex="1" parent="1">
            <mxGeometry x="441" y="210" width="240" height="120" as="geometry" />
          </mxCell>
        </object>
        <object c4Name="CI" c4Type="Configuration Item" c4Description="Includes CI IDs, server details, and associated service instances." label="&lt;font style=&quot;font-size: 16px&quot;&gt;&lt;b&gt;CI&lt;/b&gt;&lt;/font&gt;&lt;div&gt;[Configuration Item]&lt;/div&gt;&lt;br&gt;&lt;div&gt;&lt;font style=&quot;font-size: 11px&quot;&gt;Includes CI IDs, server details, and associated service instances.&lt;/font&gt;&lt;/div&gt;" id="1F7ln1BnH1d8VKDmkU4t-20">
          <mxCell style="rounded=1;whiteSpace=wrap;html=1;fontSize=11;labelBackgroundColor=none;fillColor=#4DA8DA;fontColor=#ffffff;align=center;arcSize=10;strokeColor=#2176AE;" vertex="1" parent="1">
            <mxGeometry x="50" y="430" width="240" height="120" as="geometry" />
          </mxCell>
        </object>
        <mxCell id="1F7ln1BnH1d8VKDmkU4t-26" style="edgeStyle=orthogonalEdgeStyle;rounded=0;orthogonalLoop=1;jettySize=auto;html=1;entryX=0;entryY=0.583;entryDx=0;entryDy=0;entryPerimeter=0;exitX=0.5;exitY=0;exitDx=0;exitDy=0;" edge="1" parent="1" source="ITServiceInstance" target="BusinessApplication">
          <mxGeometry relative="1" as="geometry" />
        </mxCell>
        <mxCell id="1F7ln1BnH1d8VKDmkU4t-27" value="linked to" style="edgeLabel;html=1;align=center;verticalAlign=middle;resizable=0;points=[];" vertex="1" connectable="0" parent="1F7ln1BnH1d8VKDmkU4t-26">
          <mxGeometry x="0.0235" relative="1" as="geometry">
            <mxPoint as="offset" />
          </mxGeometry>
        </mxCell>
        <object placeholders="1" c4Name="User" c4Type="Person" c4Description="Interacts with applications, belongs to AD groups, and has specific permissions." label="&lt;font style=&quot;font-size: 16px&quot;&gt;&lt;b&gt;%c4Name%&lt;/b&gt;&lt;/font&gt;&lt;div&gt;[%c4Type%]&lt;/div&gt;&lt;br&gt;&lt;div&gt;&lt;font style=&quot;font-size: 11px&quot;&gt;&lt;font color=&quot;#cccccc&quot;&gt;%c4Description%&lt;/font&gt;&lt;/div&gt;" id="1F7ln1BnH1d8VKDmkU4t-40">
          <mxCell style="html=1;fontSize=11;dashed=0;whiteSpace=wrap;fillColor=#083F75;strokeColor=#06315C;fontColor=#ffffff;shape=mxgraph.c4.person2;align=center;metaEdit=1;points=[[0.5,0,0],[1,0.5,0],[1,0.75,0],[0.75,1,0],[0.5,1,0],[0.25,1,0],[0,0.75,0],[0,0.5,0]];resizable=0;" vertex="1" parent="1">
            <mxGeometry x="840" y="-230" width="200" height="180" as="geometry" />
          </mxCell>
        </object>
      </root>
    </mxGraphModel>
  </diagram>
</mxfile>
